<svg width="46" height="46" viewBox="0 0 46 46" fill="none" xmlns="http://www.w3.org/2000/svg">
<rect width="46" height="46" rx="6" transform="matrix(-1 0 0 1 46 0)" fill="#F6E6FF"/>
<g clip-path="url(#clip0_21_63)">
<path d="M17.7685 32.6255C25.7161 32.6255 32.1589 26.0796 32.1589 18.0049C32.1589 9.93018 25.7161 3.38431 17.7685 3.38431C9.821 3.38431 3.37823 9.93018 3.37823 18.0049C3.37823 26.0796 9.821 32.6255 17.7685 32.6255Z" stroke="#1A2C41" stroke-miterlimit="10"/>
<path d="M16.9707 19.0681V24.8388V25.6959" stroke="#1A2C41" stroke-miterlimit="10"/>
<path d="M19.5673 25.3159H17.1904" stroke="#1A2C41" stroke-width="0.75" stroke-miterlimit="10"/>
<path d="M23.0128 26.442V12.84L16.9707 8.57874V18.2015" stroke="#1A2C41" stroke-miterlimit="10"/>
<path d="M19.7842 25.6956V17.207L10.7917 20.5142V27.4311H23.2325" stroke="#1A2C41" stroke-miterlimit="10"/>
<path d="M42.7305 34.7672L42.5073 34.5443C42.2009 34.2292 41.7281 34.1831 41.3725 34.4021C41.138 32.8918 40.4799 29.5138 39.1219 28.138L34.9271 23.876C34.7531 23.6992 34.598 23.6108 34.5337 23.5763C33.8113 23.1574 32.9035 23.2803 32.3134 23.876C32.0259 24.1681 31.8519 24.5408 31.7952 24.929C31.1105 24.5985 30.2595 24.7176 29.6921 25.2941C29.4311 25.5631 29.2609 25.8975 29.189 26.251C28.4703 25.7245 27.4566 25.7937 26.806 26.4509C26.5526 26.7122 26.3824 27.035 26.3105 27.377L22.9214 23.9337C22.1838 23.1843 20.7124 22.873 19.9899 23.607C19.2675 24.341 19.5436 25.8782 20.2736 26.6238L27.2978 33.7565C27.4982 33.964 27.8235 34.3483 27.7138 34.625C27.6079 34.9056 27.0103 35.2246 25.9512 35.2668C23.8784 35.3475 22.18 36.0546 21.4008 37.1576C20.9696 37.7763 20.8523 38.4719 21.0604 39.1752C21.1058 39.3328 21.2419 39.4442 21.4046 39.4519C21.7526 39.475 22.4145 39.425 23.3337 39.3597C26.2273 39.1522 32.2529 38.7179 33.9777 40.4703L34.6661 41.1736C34.3143 41.5425 34.3143 42.1344 34.6775 42.4995L34.8968 42.7262C35.26 43.0913 35.8501 43.0913 36.2132 42.7262L42.7305 36.1046C43.0898 35.7357 43.0898 35.1362 42.7305 34.7672ZM34.5186 39.9208C32.6992 38.0723 27.763 38.2606 23.2807 38.5834C22.6339 38.6295 22.093 38.6679 21.7375 38.6795C21.6921 38.3067 21.7904 37.9493 22.0249 37.6111C22.6566 36.7157 24.1696 36.1162 25.9814 36.0431C27.2788 35.9932 28.1715 35.582 28.4287 34.9094C28.5687 34.5482 28.58 33.9602 27.8387 33.207L20.8183 26.0742C20.3682 25.6169 20.145 24.5524 20.5308 24.1604C20.9129 23.7722 21.9266 24.022 22.3805 24.4832L26.5337 28.7029L27.903 30.0979C28.0543 30.2478 28.2963 30.2478 28.4476 30.0979C28.5952 29.9442 28.5952 29.6982 28.4476 29.5445L27.1276 28.2033C26.9535 27.7921 27.0406 27.3155 27.3507 27.0004C27.7706 26.5738 28.4552 26.5738 28.8789 27.0004L30.4297 28.5761C30.5772 28.7298 30.8231 28.7298 30.9706 28.5761C31.1219 28.4262 31.1219 28.1802 30.9706 28.0265L30.0098 27.0504C29.8358 26.6392 29.9228 26.1626 30.233 25.8475C30.6567 25.4171 31.3413 25.4171 31.7611 25.8475L32.041 26.1319L33.1001 27.2041C33.2477 27.3578 33.4898 27.3578 33.641 27.2041C33.7924 27.0542 33.7924 26.8083 33.641 26.6545L32.6349 25.6323C32.4609 25.2172 32.5479 24.7407 32.8581 24.4256C33.2023 24.0758 33.7394 24.0067 34.163 24.2565C34.1744 24.2642 34.1819 24.268 34.1933 24.2757C34.1971 24.2757 34.2803 24.318 34.3862 24.4256L38.581 28.6875C39.9579 30.0864 40.5668 34.137 40.6917 35.0516L35.207 40.6241L34.5186 39.9208ZM42.1858 35.5512L35.6685 42.1728C35.6042 42.2381 35.5021 42.2381 35.4377 42.1728L35.2184 41.9499C35.1541 41.8846 35.1541 41.7808 35.2184 41.7155L35.4794 41.4503L41.365 35.4667L41.7357 35.0939C41.8 35.0286 41.9021 35.0286 41.9664 35.0939L42.1858 35.3168C42.2501 35.3821 42.2501 35.4897 42.1858 35.5512Z" fill="#1A2C41"/>
<path d="M42.1858 35.5512L35.6685 42.1728C35.6042 42.2381 35.5021 42.2381 35.4378 42.1728L35.2184 41.9499C35.1541 41.8845 35.1541 41.7808 35.2184 41.7154L35.4794 41.4503L41.365 35.4666L41.7357 35.0939C41.8 35.0285 41.9021 35.0285 41.9664 35.0939L42.1858 35.3168C42.2501 35.3821 42.2501 35.4897 42.1858 35.5512Z" fill="white"/>
<path d="M40.6917 35.0516L35.2071 40.6241L34.5186 39.9208C32.6993 38.0723 27.7631 38.2606 23.2808 38.5834C22.634 38.6295 22.0931 38.6679 21.7375 38.6795C21.6921 38.3067 21.7905 37.9493 22.025 37.6111C22.6567 36.7157 24.1697 36.1162 25.9815 36.0431C27.2789 35.9932 28.1716 35.582 28.4288 34.9094C28.5687 34.5482 28.5801 33.9602 27.8387 33.207L20.8184 26.0742C20.3682 25.6169 20.1451 24.5524 20.5309 24.1604C20.9129 23.7722 21.9266 24.022 22.3805 24.4832L26.5337 28.7029L27.903 30.0979C28.0543 30.2478 28.2964 30.2478 28.4477 30.0979C28.5952 29.9442 28.5952 29.6982 28.4477 29.5445L27.1276 28.2033C26.9536 27.7921 27.0406 27.3155 27.3508 27.0004C27.7706 26.5738 28.4553 26.5738 28.8789 27.0004L30.4297 28.5761C30.5773 28.7298 30.8231 28.7298 30.9706 28.5761C31.1219 28.4262 31.1219 28.1802 30.9706 28.0265L30.0099 27.0504C29.8359 26.6392 29.9229 26.1626 30.233 25.8475C30.6567 25.4171 31.3413 25.4171 31.7612 25.8475L32.0411 26.1319L33.1002 27.2041C33.2477 27.3578 33.4898 27.3578 33.6411 27.2041C33.7924 27.0542 33.7924 26.8083 33.6411 26.6545L32.635 25.6323C32.461 25.2172 32.548 24.7407 32.8581 24.4256C33.2023 24.0759 33.7394 24.0067 34.1631 24.2565C34.1744 24.2642 34.182 24.268 34.1934 24.2757C34.1971 24.2757 34.2803 24.318 34.3863 24.4256L38.5811 28.6875C39.9579 30.0864 40.5669 34.137 40.6917 35.0516Z" fill="white"/>
</g>
<defs>
<clipPath id="clip0_21_63">
<rect width="40" height="40" fill="white" transform="translate(3 3)"/>
</clipPath>
</defs>
</svg>
