<svg width="46" height="46" viewBox="0 0 46 46" fill="none" xmlns="http://www.w3.org/2000/svg">
<rect width="46" height="46" rx="6" transform="matrix(-1 0 0 1 46 0)" fill="#F6E6FF"/>
<g clip-path="url(#clip0_21_100)">
<path d="M22.9999 37.7581C31.1506 37.7581 37.7581 31.1506 37.7581 22.9999C37.7581 14.8493 31.1506 8.24182 22.9999 8.24182C14.8493 8.24182 8.24182 14.8493 8.24182 22.9999C8.24182 31.1506 14.8493 37.7581 22.9999 37.7581Z" fill="white" stroke="#1D1D1B" stroke-width="0.335676" stroke-miterlimit="10"/>
<path d="M23 40.54C32.6871 40.54 40.5401 32.6871 40.5401 23C40.5401 13.3128 32.6871 5.4599 23 5.4599C13.3129 5.4599 5.45996 13.3128 5.45996 23C5.45996 32.6871 13.3129 40.54 23 40.54Z" stroke="#1D1D1B" stroke-width="0.671351" stroke-miterlimit="10"/>
<path d="M31.3488 16.6289H33.0168L22.9999 13.2441L12.983 16.6289H14.651V29.1238H13.4381V31.1111H33.0168V29.1238H31.3488V16.6289ZM29.337 25.6012V29.1238H27.6772V16.6289H29.337V25.6012ZM20.3343 16.6289H21.994V29.1238H20.3343V16.6289ZM24.0058 16.6289H25.6656V29.1238H24.0058V16.6289ZM16.6629 25.6012V16.6289H18.3226V29.1238H16.6629V25.6012Z" fill="#1D1D1B"/>
</g>
<defs>
<clipPath id="clip0_21_100">
<rect width="35.6284" height="35.6284" fill="white" transform="translate(5.18579 5.18579)"/>
</clipPath>
</defs>
</svg>
