<svg width="276" height="178" viewBox="0 0 276 178" fill="none" xmlns="http://www.w3.org/2000/svg">
<g clip-path="url(#clip0_22_191)">
<path d="M59.2587 99.1899V151.593V159.376" stroke="white" stroke-width="3" stroke-miterlimit="10"/>
<path d="M114.957 43.8242L59.2587 3.93689V91.3205" stroke="white" stroke-width="3" stroke-miterlimit="10"/>
<path d="M84 157L60 157" stroke="white" stroke-width="4.8" stroke-miterlimit="10"/>
<path d="M85.0936 159.373V82.2887L2.51898 112.321V175.133H114.74V153.259" stroke="white" stroke-width="3" stroke-miterlimit="10"/>
<path d="M116.128 106.401H110.728V42.1729H116.128V106.401Z" fill="white"/>
<path d="M137.246 58.6711L137.422 66.8319C139.207 63.8911 141.432 61.6487 144.095 60.1047C146.759 58.5608 149.7 57.7888 152.92 57.7888C158.013 57.7888 161.803 59.2298 164.291 62.1119C166.779 64.9939 168.037 69.3169 168.067 75.081V106.401H162.842V75.0369C162.813 70.7727 161.913 67.5965 160.142 65.5085C158.371 63.4205 155.539 62.3765 151.647 62.3765C148.398 62.3765 145.522 63.3985 143.019 65.4424C140.517 67.4863 138.666 70.2433 137.466 73.7135V106.401H132.241V58.6711H137.246Z" fill="white"/>
<path d="M185.409 106.401V62.9941H177.55V58.6711H185.409V52.8923C185.409 48.0105 186.645 44.2609 189.119 41.6436C191.592 39.0262 195.038 37.7175 199.458 37.7175C201.448 37.7175 203.307 37.9657 205.034 38.4601L204.639 42.8346C203.175 42.4817 201.58 42.3053 199.853 42.3053C196.956 42.3053 194.702 43.2132 193.092 45.0255C191.482 46.8397 190.677 49.4129 190.677 52.7434V58.6711H202.005V62.9941H190.677V106.401H185.409Z" fill="white"/>
<path d="M233.352 63.1706C232.24 62.9647 231.054 62.8618 229.796 62.8618C226.518 62.8618 223.744 63.7808 221.476 65.6188C219.208 67.4569 217.591 70.1257 216.625 73.6253V106.401H211.4V58.6711H216.537L216.625 66.2585C219.405 60.612 223.869 57.7888 230.015 57.7888C231.479 57.7888 232.635 57.98 233.484 58.3623L233.352 63.1706Z" fill="white"/>
<path d="M269.88 106.401C269.353 104.901 269.017 102.681 268.871 99.74C267.027 102.152 264.678 104.012 261.824 105.32C258.97 106.629 255.948 107.283 252.758 107.283C248.192 107.283 244.496 106.004 241.672 103.445C238.847 100.887 237.435 97.652 237.435 93.7407C237.435 89.0941 239.36 85.4181 243.209 82.7125C247.058 80.0069 252.421 78.6541 259.299 78.6541H268.827V73.2283C268.827 69.8169 267.78 67.1334 265.687 65.1777C263.595 63.222 260.543 62.2442 256.533 62.2442C252.875 62.2442 249.845 63.1853 247.445 65.0674C245.045 66.9496 243.845 69.214 243.845 71.8608L238.577 71.8167C238.577 68.023 240.333 64.7366 243.845 61.9575C247.358 59.1784 251.675 57.7888 256.797 57.7888C262.095 57.7888 266.273 59.1196 269.332 61.781C272.39 64.4425 273.963 68.1553 274.051 72.9195V95.5052C274.051 100.122 274.534 103.578 275.5 105.872V106.401H269.88ZM253.372 102.607C256.885 102.607 260.024 101.754 262.79 100.049C265.556 98.3431 267.568 96.0639 268.827 93.2113V82.7125H259.431C254.192 82.7713 250.094 83.7344 247.138 85.6019C244.182 87.4693 242.704 90.0352 242.704 93.2996C242.704 95.9757 243.692 98.1961 245.667 99.9606C247.643 101.725 250.211 102.607 253.372 102.607Z" fill="white"/>
<path d="M125.3 165.903H150.666V177.166H110.728V116.432H125.3V165.903Z" fill="white"/>
<path d="M154.403 154.182C154.403 149.677 155.274 145.665 157.018 142.148C158.762 138.63 161.267 135.925 164.532 134.034C167.798 132.143 171.632 131.198 176.032 131.198C182.758 131.198 188.058 133.291 191.933 137.476C195.808 141.661 197.745 147.355 197.745 154.557V155.058C197.745 162.093 195.801 167.676 191.912 171.806C188.023 175.935 182.758 178 176.115 178C169.722 178 164.588 176.074 160.713 172.223C156.838 168.371 154.749 163.15 154.444 156.56L154.403 154.182ZM168.393 155.058C168.393 159.229 169.044 162.288 170.345 164.235C171.645 166.181 173.569 167.155 176.115 167.155C181.097 167.155 183.644 163.303 183.754 155.6V154.182C183.754 146.09 181.18 142.043 176.032 142.043C171.355 142.043 168.822 145.533 168.435 152.513L168.393 155.058Z" fill="white"/>
<path d="M222.904 167.155C224.869 167.155 226.391 166.619 227.47 165.549C228.55 164.478 229.076 162.983 229.048 161.065H242.167C242.167 166.014 240.402 170.075 236.874 173.245C233.345 176.415 228.799 178 223.236 178C216.704 178 211.556 175.942 207.792 171.826C204.028 167.711 202.146 162.01 202.146 154.724V154.14C202.146 149.58 202.983 145.554 204.657 142.064C206.332 138.574 208.747 135.891 211.902 134.014C215.057 132.137 218.794 131.198 223.111 131.198C228.951 131.198 233.587 132.825 237.019 136.078C240.451 139.332 242.167 143.74 242.167 149.301H229.048C229.048 146.966 228.481 145.172 227.346 143.92C226.211 142.669 224.689 142.043 222.779 142.043C219.153 142.043 217.036 144.365 216.427 149.009C216.233 150.483 216.136 152.513 216.136 155.1C216.136 159.632 216.676 162.775 217.756 164.527C218.835 166.279 220.551 167.155 222.904 167.155Z" fill="white"/>
</g>
<defs>
<clipPath id="clip0_22_191">
<rect width="275" height="178" fill="white" transform="translate(0.5)"/>
</clipPath>
</defs>
</svg>
