<?xml version="1.0" encoding="UTF-8"?><svg id="Calque_1" xmlns="http://www.w3.org/2000/svg" viewBox="0 0 430.4680851064 277.3125876725"><defs><style>.cls-1{fill:#1a2c41;}.cls-2{fill:none;}.cls-3{fill:#ef850d;}</style></defs><path class="cls-2" d="M386.0718531505,133.3622989829c-4.6273588905,2.9093310232-6.9411669306,6.9068320922-6.9411669306,11.9923746122,0,4.1693038558,1.5463536755,7.6285066724,4.6389324315,10.377479855s7.1129697173,4.1235240713,12.0611728839,4.1235240713c5.49807496,0,10.4118146933-1.3287711042,14.7414763897-3.9860561229,4.3296616964-2.6574136136,7.4795937779-6.2081759992,9.4496676497-10.6524157517v-16.3564997419h-14.7071415513c-8.2011397632.0916881639-14.6154533875,1.5921334599-19.2429408728,4.501593078Z"/><path class="cls-2" d="M274.7674374068,221.294463012c-7.3218078353,0-11.2860028252,5.4371209773-11.8924563748,16.3114915268l-.0650690195,3.9641949899c0,6.4985432839,1.0180858252,11.2642702871,3.0543860706,14.2969238196,2.0361716505,3.0327821274,5.0472212398,4.5490445962,9.0330201729,4.5490445962,7.7983805356,0,11.7841794688-6.0003666404,11.9575253943-18.0010999211v-2.2096461709c0-12.6073154252-4.0291354145-18.9109088404-12.0874062435-18.9109088404Z"/><polygon class="cls-3" points="95.1375934797 12.2669247243 172.5441363287 67.4390235361 172.5441363287 165.7658991367 180.9971935015 165.7658991367 180.9971935015 65.7027351929 180.9970649066 65.7027351929 180.997836476 65.7017064337 88.8168969428 0 88.8168969428 140.6227670508 95.1375934797 138.3346779907 95.1375934797 12.2669247243"/><path class="cls-3" d="M249.8938402318,102.0580566313c2.7718630748,3.2530651915,4.1807488019,8.2012683581,4.2265285864,14.8446094997v48.8632330057h8.178249871v-48.794563329c-.0457797845-8.980039074-2.0159822512-15.7150683795-5.9103502102-20.2050879165s-9.8276080615-6.7350293055-17.7997203074-6.7350293055c-5.0397627355,0-9.6443603287,1.202748102-13.8136641844,3.6081157111s-7.6513965646,5.8989052641-10.4461495317,10.4804843701l-.2749358967-12.7140491924h-7.8346442975v74.3601296622h8.178249871v-50.9249950414c1.8785143028-5.4063867961,4.7764003798-9.7015850593,8.693786826-12.8858519792,3.9172578513-3.1842669199,8.4187223344-4.7764003798,13.5043934493-4.7764003798,6.0935979431,0,10.5262641545,1.6264682983,13.2982558242,4.8794048949Z"/><path class="cls-3" d="M297.6919216788,82.1708553082c0-5.18867563,1.2598442377-9.1976216452,3.7797899029-12.0238803628,2.5199456652-2.8235582247,6.0478181586-4.2381021274,10.5836174801-4.2381021274,2.7031933981,0,5.2002491711.2749358967,7.491038724.8246790953l.6185414702-6.8151439283c-2.7031933981-.7702834525-5.6125244212-1.1568397226-8.7281216644-1.1568397226-6.9182770383,0-12.3130902935,2.0387435485-16.1846969552,6.1164878353-3.8714780668,4.0776156919-5.8072171002,9.9191676305-5.8072171002,17.5247844106v9.0029289662h-12.3016453473v6.7350293055h12.3016453473v67.6251003567h8.2470481426v-67.6251003567h17.7309220357v-6.7350293055h-17.7309220357v-9.2349141663Z"/><path class="cls-3" d="M338.3082351368,114.703436147c1.5118902422-5.4521665806,4.0432808535-9.6100254903,7.5940432391-12.473576729,3.5507623856-2.8634226438,7.8918690281-4.2951982631,13.0233199275-4.2951982631,1.9702024667,0,3.8256982823.1603578406,5.5667446368.4810735218l.2061376251-7.491038724c-1.3286425093-.5956515779-3.1383585405-.8934773669-5.4292766884-.8934773669-9.6214704364,0-16.6084171515,4.398459968-20.9609687401,13.1952513092l-.1374679484-11.8207004204h-8.0407819226v74.3601296622h8.178249871v-51.0624629897Z"/><path class="cls-3" d="M428.2001854456,148.7909865195v-35.1871653645c-.1374679484-7.4222404524-2.6000602881-13.2065676604-7.387905614-17.3529816239s-11.3281819525-6.2196209453-19.6208812846-6.2196209453c-8.0178920303,0-14.7758112281,2.1648951456-20.2738861881,6.494556842-5.4979463651,4.3296616964-8.2469195477,9.4496676497-8.2469195477,15.3600178599l8.2469195477.0686696767c0-4.1235240713,1.8785143028-7.6513965646,5.6354143135-10.5836174801,3.7570286056-2.9322209154,8.4989655522-4.3983313731,14.2260680295-4.3983313731,6.2768456759,0,11.0532460558,1.5233351883,14.3290725446,4.5701341598,3.2759550838,3.0467989715,4.9138683282,7.2275477734,4.9138683282,12.5422464057v8.4531857677h-14.9132791764c-10.7668652129,0-19.1626976551,2.1075418201-25.1876259214,6.3226254604-6.0247996714,4.2152122352-9.0372638046,9.9421861176-9.0372638046,17.1813074321,0,6.0935979431,2.2106749301,11.1333606786,6.6318961955,15.1194168015,4.4213498603,3.9860561229,10.2056770682,5.9790198869,17.3529816239,5.9790198869,4.9939829511,0,9.7246035464-1.0193717743,14.1917331912-3.0582439177s8.1437864377-4.9367582204,11.0302275686-8.6936582311c.2291561122,4.581579106.7560094185,8.0407819226,1.5806885138,10.3773512601h8.7967913411v-.8246790953c-1.5118902422-3.5736522778-2.2678996607-8.9571491817-2.2678996607-16.1502335219ZM420.0219355747,145.2172056468c-1.9700738718,4.4442397525-5.1200059533,7.9950021381-9.4496676497,10.6524157517-4.3296616964,2.6572850187-9.2434014297,3.9860561229-14.7414763897,3.9860561229-4.9482031666,0-8.9685941279-1.3745508887-12.0611728839-4.1235240713s-4.6389324315-6.2081759992-4.6389324315-10.377479855c0-5.08554252,2.3138080401-9.0830435891,6.9411669306-11.9923746122,4.6274874854-2.9094596181,11.0418011096-4.4099049141,19.2429408728-4.501593078h14.7071415513v16.3564997419Z"/><polygon class="cls-1" points="195.3542997343 181.3928800095 172.5441363287 181.3928800095 172.5441363287 269.6851097593 6.3206965369 269.6851097593 6.3206965369 177.2068588167 129.2574211722 132.7058220172 129.2574211722 241.9734231359 95.1375934797 241.9734231359 95.1375934797 154.5319772461 88.8168969428 154.5319772461 88.8168969428 248.2982347096 95.1375934797 248.2982347096 95.1375934797 248.2941196728 129.3006290586 248.2941196728 129.3006290586 248.2930909136 135.5781177091 248.2930909136 135.5781177091 123.6959489263 95.1375934797 138.3346779907 88.8168969428 140.6227670508 0 172.7729066562 0 276.0058062962 172.5441363287 276.0058062962 172.5441363287 276.0128790157 235.0608042731 276.0128790157 235.0608042731 258.4664906618 195.3542997343 258.4664906618 195.3542997343 181.3928800095"/><path class="cls-1" d="M274.7674374068,204.397993284c-6.8885716164,0-12.8889382568,1.4730545823-18.001228516,4.4190351521-5.1122902593,2.9461091646-9.0330201729,7.1593924763-11.7624469306,12.639849935-2.7294267577,5.4805860536-4.094204434,11.7300410157-4.094204434,18.7484934814l.0650690195,3.7043046965c.4765727003,10.267788405,3.747512583,18.4019302252,9.812819648,24.4022968656,6.0654356599,6.0003666404,14.1021025457,9.000614258,24.1098720624,9.000614258,10.3977978492,0,18.6402165754-3.2168014297,24.7272561785-9.6505328839,6.0870396031-6.4336028593,9.1306237022-15.1308617477,9.1306237022-26.0919052599v-.7797994751c0-11.2210624006-3.0326535325-20.0916672144-9.0980891924-26.6119430365-6.065307065-6.5202758221-14.3619928391-9.7804137331-24.8896715375-9.7804137331ZM286.8548436503,242.4150180233c-.1733459255,12.0007332808-4.1591448587,18.0010999211-11.9575253943,18.0010999211-3.9857989331,0-6.9968485224-1.5162624688-9.0330201729-4.5490445962-2.0363002454-3.0326535325-3.0543860706-7.7983805356-3.0543860706-14.2969238196l.0650690195-3.9641949899c.6064535496-10.8743705495,4.5706485394-16.3114915268,11.8924563748-16.3114915268,8.058270829,0,12.0874062435,6.3035934152,12.0874062435,18.9109088404v2.2096461709Z"/><path class="cls-1" d="M347.9419220888,221.294463012c2.9893170511,0,5.3721805527.9747493439,7.1484619098,2.9243766265,1.7762813571,1.9494986877,2.6644863331,4.743994465,2.6644863331,8.3832301419h20.5355768101c0-8.6648529735-2.6860902763-15.5316920517-8.058270829-20.6006458296s-12.6290479634-7.6034306669-21.7703450423-7.6034306669c-6.7585621722,0-12.6074440201,1.4622526107-17.5463883539,4.3866292372-4.9389443337,2.9243766265-8.7189914265,7.1051254284-11.3400126833,12.5422464057-2.6211498517,5.4372495722-3.9316604801,11.7084370725-3.9316604801,18.8135625009v.9098089192c0,11.3509432498,2.9459805697,20.2323500353,8.8380703041,26.6443489514,5.8920897344,6.4119989161,13.9503605634,9.6179983741,24.174941082,9.6179983741,8.70806086,0,15.8241168549-2.4695364643,21.347910795-7.4084807981s8.2857552076-11.2642702871,8.2857552076-18.9759778599h-20.5355768101c.0432078865,2.989445646-.77992807,5.3180420997-2.4695364643,6.9860465508s-4.0724718959,2.5019423792-7.1484619098,2.5019423792c-3.6825721583,0-6.3686624347-1.3646490814-8.058270829-4.0940758391-1.6897369892-2.7294267577-2.5344768889-7.6250346101-2.5344768889-14.686952152,0-4.0291354145.1516133874-7.1917983912.4548401622-9.48798893.9531454006-7.2351348725,4.2674217647-10.8526380114,9.942957687-10.8526380114Z"/></svg>